<svg width="65" height="55" fill="none" xmlns="http://www.w3.org/2000/svg"><path d="M24.516 36.888h-5.778v-.358c1.15 0 1.84-1.025 1.84-2.87V21.032c0-1.665-.638-2.843-1.84-2.843v-.359h5.803c5.369 0 10.712 1.64 10.712 9.58-.026 8.173-5.343 9.48-10.737 9.48zm0-18.675H23.34v18.342h1.176c2.914 0 7.464-.128 7.464-9.12.026-8.735-4.473-9.222-7.464-9.222zM48.29 36.888H45.4c-2.863 0-3.477-.82-6.34-4.893-1.533-2.229-2.99-4.124-2.99-4.124l3.4-4.15c1.533-1.819 4.652-5.457.638-5.508v-.358h7.414v.358c-1.969 0-3.451.64-9.28 8.146 3.145 4.227 6.468 8.685 6.468 8.685 1.253 1.588 3.195 1.511 3.553 1.511v.333h.026z" fill="#000"/><path d="M63.322 27.36l.818-.744c-.179-.205-.511-.563-.716-.845-.511-.692-1.33-2.024-2.377-4.509-1.713-3.996-4.193-5.79-5.292-6.43-.077-1.383-.562-4.252-3.093-7.736-1.713-2.357-2.659-3.97-3.145-4.919-.255-.512-.434-.87-.51-1.075a.695.695 0 01-.078-.205l-.025-.103-1.023.282-.179-1.05s-1.048.256-3.374.256c-1.227 0-2.633-.077-4.141-.205A21.357 21.357 0 0038.397 0c-3.119.051-5.164.82-6.314 1.409C30.958.819 28.887.05 25.794.05a20.9 20.9 0 00-1.79.077c-1.508.128-2.914.205-4.14.205a23.95 23.95 0 01-2.608-.128C17 .179 16.59.077 16.463.077l-.153 1.076L15.262.82c-.026.077-.64 1.998-3.758 6.302-2.505 3.458-3.017 6.327-3.093 7.71-1.049.615-3.605 2.408-5.318 6.43-.971 2.331-1.764 3.638-2.25 4.355-.255.359-.817 1.05-.817 1.05l.792.718-.818.691c.153.18 1.457 1.768 3.477 5.944 1.61 3.355 3.604 4.79 4.806 5.405.05 1.562.537 4.867 3.22 8.53 1.714 2.357 2.66 3.97 3.145 4.893.256.513.435.871.511 1.076.052.103.077.18.077.205l.026.077 1.022-.308.154 1.076s1.073-.281 3.4-.281c1.227 0 2.633.076 4.141.205.614.05 1.201.076 1.79.076 2.812 0 4.78-.64 5.956-1.178.128-.051.23-.102.332-.154 1.15.59 3.196 1.358 6.314 1.358.588 0 1.176-.026 1.79-.077 1.508-.128 2.914-.205 4.141-.205 1.279 0 2.122.077 2.608.128.256.026.434.052.562.077l.205.051.153-1.075 1.048.307c.026-.077.665-1.998 3.784-6.302 2.71-3.714 3.093-7.07 3.119-8.505 1.201-.589 3.246-2.024 4.882-5.43 1.125-2.332 2.02-3.869 2.582-4.766.307-.486.537-.845.69-1.05.026-.025.128-.153.18-.23l-.793-.564zm-15.594-.846l1.508.743-1.457.691s1.278 1.204 1.815 1.768c2.02 2.177 3.042 4.995 3.784 8.428a16.916 16.916 0 01-8.999 2.562c-.716 0-1.406-.052-2.122-.129a12.042 12.042 0 01-2.48-.589l.154 1.666-1.38-.923c-.793 4.15-3.247 7.89-6.647 10.35-2.863-2.101-5.01-4.996-6.136-8.326-.178-.564-.306-1.23-.434-1.87l-1.38.87.153-1.664c-1.33.41-2.812.589-4.193.589a17.15 17.15 0 01-8.998-2.562c.741-3.432 1.764-6.276 3.783-8.428.384-.41 1.585-1.588 1.867-1.793l-1.509-.717 1.508-.718s-1.61-1.485-1.968-1.895c-1.943-2.152-2.94-4.944-3.681-8.326a16.916 16.916 0 018.998-2.561c.946 0 1.892.076 2.812.23.435.077 1.15.282 1.585.384l-.153-1.665 1.38.923c.154-.82.307-1.384.537-1.947A17.406 17.406 0 0131.776 4.2l.051.051.153-.128a17.287 17.287 0 015.676 7.173c.306.717.485 1.512.69 2.357l1.38-.922-.153 1.665c1.508-.436 3.272-.743 4.832-.743 3.195 0 6.288.896 8.998 2.562-.767 3.535-1.815 6.455-3.962 8.633-.537.589-1.713 1.665-1.713 1.665zm-9.33-24.208c.51 0 1.047.025 1.584.076 1.585.154 3.042.205 4.346.205 1.278 0 2.198-.077 2.812-.153.486 1.05 1.508 2.971 3.707 6.02 1.56 2.151 2.224 3.996 2.505 5.277a19.26 19.26 0 00-8.998-2.229c-1.407 0-2.787.154-4.167.461a19.444 19.444 0 00-6.136-8.966c.997-.358 2.429-.691 4.346-.691zm-25.08 6.148c2.2-3.049 3.248-4.97 3.733-6.02.614.076 1.534.153 2.812.153 1.304 0 2.761-.077 4.346-.205a16.815 16.815 0 011.585-.076c1.764 0 3.119.281 4.04.589a19.393 19.393 0 00-6.213 8.94 19.98 19.98 0 00-3.707-.359c-3.195 0-6.288.795-9.1 2.28.255-1.28.92-3.125 2.505-5.302zM5.497 33.046c-1.406-2.946-2.53-4.74-3.17-5.687.64-.82 1.61-2.357 2.838-5.226.946-2.229 2.198-3.612 3.068-4.406.23-.205.434-.359.613-.487.818 3.69 2.147 7.301 5.215 9.991-3.068 2.69-4.397 6.276-5.24 9.965-.844-.563-2.148-1.716-3.324-4.15zm20.298 19.75c-.511 0-1.048-.025-1.585-.076a44.894 44.894 0 00-4.346-.205c-1.278 0-2.198.077-2.812.154-.485-1.05-1.508-2.972-3.732-6.02-1.739-2.383-2.378-4.56-2.633-6.02a19.312 19.312 0 009.228 2.357c1.15 0 2.327-.103 3.477-.308a19.467 19.467 0 006.314 9.581c-.945.282-2.25.538-3.911.538zm25.078-6.147c-2.198 3.048-3.246 4.97-3.732 6.02a23.045 23.045 0 00-2.812-.154c-1.304 0-2.761.077-4.346.205-.537.051-1.074.077-1.585.077-1.866 0-3.272-.333-4.192-.64a19.27 19.27 0 006.237-9.581 18.51 18.51 0 003.937.41c3.196 0 6.289-.795 9.075-2.28-.23 1.434-.869 3.586-2.582 5.943zm7.797-13.603c-1.048 2.152-2.198 3.305-2.99 3.894l-.23.154c-.819-3.638-2.148-7.224-5.216-9.889 3.068-2.664 4.397-6.25 5.215-9.888.997.769 2.48 2.255 3.554 4.816 1.227 2.895 2.198 4.432 2.837 5.2-.639.974-1.738 2.767-3.17 5.713z" fill="#000"/></svg>