<svg width="213" height="18" fill="none" xmlns="http://www.w3.org/2000/svg"><path d="M0 17.703V.29h4.769c6.082 0 9.12 2.83 9.12 8.493 0 2.685-.842 4.847-2.532 6.476-1.69 1.63-3.947 2.444-6.78 2.444H0zM2.018 2.14v13.727h2.58c2.264 0 4.023-.608 5.282-1.837 1.258-1.222 1.888-2.955 1.888-5.2 0-4.46-2.347-6.69-7.047-6.69H2.018zm17.105 15.563h-2.018V.29h2.018v17.413zm13.184 0h-8.955V.29h2.018v15.57h6.93v1.843h.008zm2.402 0V.29h4.762c6.082 0 9.12 2.83 9.12 8.493 0 2.685-.848 4.847-2.531 6.476-1.69 1.63-3.948 2.444-6.78 2.444h-4.571zM36.727 2.14v13.727H39.3c2.265 0 4.023-.608 5.282-1.837 1.259-1.222 1.888-2.955 1.888-5.2.007-4.46-2.34-6.69-7.047-6.69h-2.696zm40.517 15.563h-2.408l-2.894-4.881c-.267-.456-.52-.843-.767-1.16a4.07 4.07 0 00-.76-.78c-.26-.2-.54-.353-.848-.45a3.526 3.526 0 00-1.012-.137h-1.663v7.408h-2.025V.29h5.152c.753 0 1.45.097 2.087.29.636.186 1.19.476 1.662.87A4.06 4.06 0 0174.87 2.9c.267.58.397 1.257.397 2.037 0 .607-.09 1.167-.274 1.67-.178.512-.438.96-.773 1.354-.328.4-.732.732-1.204 1.015a6.242 6.242 0 01-1.58.649v.048c.287.131.54.276.752.442.212.166.417.36.609.587.191.228.383.483.575.773.184.29.396.622.629 1.002l3.243 5.226zM66.9 2.14v6.318h2.744a4.01 4.01 0 001.402-.235c.425-.152.8-.373 1.116-.663a3.05 3.05 0 00.732-1.056c.178-.414.266-.884.266-1.402 0-.932-.294-1.657-.896-2.181-.595-.518-1.464-.78-2.593-.78H66.9zm26.97 15.563h-2.238l-1.826-4.881h-7.321l-1.717 4.881h-2.251L85.14.29h2.093l6.637 17.413zm-4.728-6.711l-2.71-7.422c-.088-.242-.177-.636-.266-1.167h-.048c-.082.49-.171.884-.28 1.167l-2.683 7.422h5.987zm26.027 6.711h-2.812l-6.671-7.968a5.798 5.798 0 01-.459-.607h-.048v8.568h-2.025V.29h2.025v8.189h.048c.11-.18.267-.38.459-.594L112.138.29h2.517l-7.402 8.354 7.916 9.06zm16.591 0h-2.244l-1.827-4.881h-7.314l-1.724 4.881H116.4L123.023.29h2.094l6.643 17.413zm-4.734-6.711l-2.71-7.422c-.089-.242-.177-.636-.266-1.167h-.048c-.082.49-.171.884-.281 1.167l-2.682 7.422h5.987zm6.609 6.007v-2.403c.273.242.602.463.978.656s.78.359 1.204.49c.418.138.849.235 1.273.31.424.077.821.111 1.177.111 1.245 0 2.169-.234 2.784-.697.616-.47.924-1.14.924-2.01 0-.469-.103-.876-.308-1.228a3.351 3.351 0 00-.848-.953 8.26 8.26 0 00-1.28-.829 101.65 101.65 0 00-1.594-.828 23.798 23.798 0 01-1.683-.94 7.613 7.613 0 01-1.361-1.042 4.38 4.38 0 01-.904-1.29c-.219-.484-.328-1.05-.328-1.7 0-.793.171-1.484.513-2.07a4.433 4.433 0 011.362-1.45 6.167 6.167 0 011.922-.85A8.711 8.711 0 01139.662 0c1.704 0 2.942.207 3.722.621v2.3c-1.019-.712-2.326-1.07-3.92-1.07-.445 0-.883.048-1.32.137a3.5 3.5 0 00-1.177.456 2.725 2.725 0 00-.842.815c-.219.331-.328.739-.328 1.215 0 .442.082.829.246 1.153.164.325.411.615.732.884.322.27.712.525 1.17.773.465.249.992.532 1.594.829.616.31 1.204.635 1.759.973.554.339 1.04.718 1.457 1.126.417.414.746.87.992 1.374.246.504.369 1.077.369 1.726 0 .856-.164 1.588-.499 2.182a4.129 4.129 0 01-1.348 1.45 5.863 5.863 0 01-1.957.807c-.739.166-1.518.249-2.333.249-.273 0-.609-.02-1.012-.062-.404-.042-.808-.11-1.225-.194a9.59 9.59 0 01-1.184-.317c-.396-.131-.697-.27-.923-.428zm15.51.704h-2.018V.29h2.018v17.413zm19.903 0h-2.012V6.021c0-.463.014-.98.041-1.574.028-.587.069-1.216.123-1.885h-.047a4.987 4.987 0 01-.219.649c-.096.241-.199.47-.308.697l-.301.6a6.94 6.94 0 00-.199.401l-4.426 8.258h-.986l-4.426-8.237a7.142 7.142 0 00-.206-.421c-.095-.187-.198-.387-.301-.608-.102-.228-.205-.449-.294-.683a7.275 7.275 0 01-.212-.656h-.048c.034.352.055.821.069 1.408.013.594.027 1.277.027 2.071v11.662h-1.95V.29h2.532l4.474 8.285c.192.366.356.705.493 1.022.137.318.232.594.301.829h.075c.082-.242.185-.525.315-.85.137-.324.301-.67.513-1.042l4.461-8.237h2.504v17.406h.007zM198.646.29l-6.391 17.413h-2.23L183.771.29h2.251l4.776 13.809c.151.442.267.96.349 1.547h.048a7.572 7.572 0 01.397-1.568L196.463.297h2.183V.29zM213 17.703h-2.238l-1.826-4.881h-7.314l-1.725 4.881h-2.251L204.269.29h2.094L213 17.703zm-4.728-6.711l-2.71-7.422c-.088-.242-.177-.636-.266-1.167h-.048c-.082.49-.171.884-.281 1.167l-2.682 7.422h5.987z" fill="#fff"/></svg>